# xmcd
#
# Track frame offsets:
#	150
#	21933
#	36430
#	48809
#	68654
#	70708
#	89229
#	108053
#	126709
#	147436
#	151378
#	169050
#	189912
#	194419
#	220898
#	242371
#	267275
#	281695
#	287273
#	304883
#	305918
#
# Disc length: 4384 seconds
#
# Revision: 0
# Processed by: cddbd v1.5.2PL0 Copyright (c) Steve Scherf et al.
# Submitted via: dBpowerAMP V4.0
#
DISCID=3b111e15
DTITLE=Clueso - Gute Musik
DYEAR=1900
DGENRE=Pop
TTITLE0=Nacht unterwegs (feat. Jürgen Kerth Band)
TTITLE1=Das Level 
TTITLE2=Uh Girl
TTITLE3=Gute Musik
TTITLE4=Dein Raum
TTITLE5=Es wird heiß
TTITLE6=Love The People (feat. Steer M) 
TTITLE7=Kalter Kaffee
TTITLE8=Bescheid
TTITLE9=Vier kleine Wände
TTITLE10=City-Pizza-Express
TTITLE11=Pizzaschachteln
TTITLE12=Wie heißt'n Du?
TTITLE13=Wart mal
TTITLE14=Vergessen ist so leicht
TTITLE15=Fanpost (feat. Tim Neuhaus) 
TTITLE16=Egal wo
TTITLE17=Ich geh heim
TTITLE18=Herz Boom Boom
TTITLE19=Vorspiel
TTITLE20=Kein Bock zu gehen
EXTD=
EXTT0=
EXTT1=
EXTT2=
EXTT3=
EXTT4=
EXTT5=
EXTT6=
EXTT7=
EXTT8=
EXTT9=
EXTT10=
EXTT11=
EXTT12=
EXTT13=
EXTT14=
EXTT15=
EXTT16=
EXTT17=
EXTT18=
EXTT19=
EXTT20=
PLAYORDER=
